<svg width="476" height="124" viewBox="0 0 476 124" fill="none" xmlns="http://www.w3.org/2000/svg">
<rect width="476" height="124" fill="url(#paint0_linear_605_2751)"/>
<path d="M238.5 68.5C241.814 68.5 244.5 65.8137 244.5 62.5C244.5 59.1863 241.814 56.5 238.5 56.5C235.186 56.5 232.5 59.1863 232.5 62.5C232.5 65.8137 235.186 68.5 238.5 68.5Z" stroke="white" stroke-width="3" stroke-linecap="round" stroke-linejoin="round"/>
<path d="M259.923 41.499C265.228 46.91 268.5 54.323 268.5 62.5C268.5 70.676 265.229 78.089 259.924 83.5" stroke="white" stroke-width="3" stroke-linecap="round" stroke-linejoin="round"/>
<path d="M251.502 50.052C254.598 53.285 256.5 57.67 256.5 62.5C256.5 67.331 254.597 71.717 251.5 74.95" stroke="white" stroke-width="3" stroke-linecap="round" stroke-linejoin="round"/>
<path d="M217.077 41.499C211.772 46.91 208.5 54.323 208.5 62.5C208.5 70.676 211.771 78.089 217.076 83.5" stroke="white" stroke-width="3" stroke-linecap="round" stroke-linejoin="round"/>
<path d="M225.498 50.052C222.402 53.285 220.5 57.67 220.5 62.5C220.5 67.331 222.403 71.717 225.5 74.95" stroke="white" stroke-width="3" stroke-linecap="round" stroke-linejoin="round"/>
<defs>
<linearGradient id="paint0_linear_605_2751" x1="478.164" y1="-0.873246" x2="131.851" y2="286.259" gradientUnits="userSpaceOnUse">
<stop stop-color="#F1AFAF"/>
<stop offset="1" stop-color="#0094FF"/>
</linearGradient>
</defs>
</svg>
