<svg xmlns="http://www.w3.org/2000/svg" viewBox="0 0 24 24"><g fill="none" class="nc-icon-wrapper"><path d="M14 11.5a1.5 1.5 0 1 0 0-3 1.5 1.5 0 0 0 0 3z" fill="currentColor"></path><path d="M14 19a1 1 0 1 0 0-2 1 1 0 0 0 0 2z" fill="currentColor"></path><path d="M14 15.5a1.5 1.5 0 1 0 0-3 1.5 1.5 0 0 0 0 3z" fill="currentColor"></path><path d="M14 7a1 1 0 1 0 0-2 1 1 0 0 0 0 2z" fill="currentColor"></path><path d="M3 9.5c-.28 0-.5.22-.5.5s.22.5.5.5.5-.22.5-.5-.22-.5-.5-.5zM14.5 3c0-.28-.22-.5-.5-.5s-.5.22-.5.5.22.5.5.5.5-.22.5-.5zM21 14.5c.28 0 .5-.22.5-.5s-.22-.5-.5-.5-.5.22-.5.5.22.5.5.5z" fill="currentColor"></path><path d="M18 19a1 1 0 1 0 0-2 1 1 0 0 0 0 2z" fill="currentColor"></path><path d="M13.5 21c0 .28.22.5.5.5s.5-.22.5-.5-.22-.5-.5-.5-.5.22-.5.5zM21 10.5c.28 0 .5-.22.5-.5s-.22-.5-.5-.5-.5.22-.5.5.22.5.5.5z" fill="currentColor"></path><path d="M18 15a1 1 0 1 0 0-2 1 1 0 0 0 0 2z" fill="currentColor"></path><path d="M18 7a1 1 0 1 0 0-2 1 1 0 0 0 0 2z" fill="currentColor"></path><path d="M6 19a1 1 0 1 0 0-2 1 1 0 0 0 0 2z" fill="currentColor"></path><path d="M6 15a1 1 0 1 0 0-2 1 1 0 0 0 0 2z" fill="currentColor"></path><path d="M3.5 14c0-.28-.22-.5-.5-.5s-.5.22-.5.5.22.5.5.5.5-.22.5-.5z" fill="currentColor"></path><path d="M10 7a1 1 0 1 0 0-2 1 1 0 0 0 0 2z" fill="currentColor"></path><path d="M6 11a1 1 0 1 0 0-2 1 1 0 0 0 0 2z" fill="currentColor"></path><path d="M6 7a1 1 0 1 0 0-2 1 1 0 0 0 0 2z" fill="currentColor"></path><path d="M9.5 21c0 .28.22.5.5.5s.5-.22.5-.5-.22-.5-.5-.5-.5.22-.5.5z" fill="currentColor"></path><path d="M10 19a1 1 0 1 0 0-2 1 1 0 0 0 0 2z" fill="currentColor"></path><path d="M10.5 3c0-.28-.22-.5-.5-.5s-.5.22-.5.5.22.5.5.5.5-.22.5-.5z" fill="currentColor"></path><path d="M10 15.5a1.5 1.5 0 1 0 0-3 1.5 1.5 0 0 0 0 3z" fill="currentColor"></path><path d="M10 11.5a1.5 1.5 0 1 0 0-3 1.5 1.5 0 0 0 0 3z" fill="currentColor"></path><path d="M18 11a1 1 0 1 0 0-2 1 1 0 0 0 0 2z" fill="currentColor"></path></g></svg>