<svg width="16" height="17" viewBox="0 0 16 17" fill="currentColor" xmlns="http://www.w3.org/2000/svg">
<g clip-path="url(#clip0)">
<path d="M15.1 6.5C14.9749 6.47679 14.8463 6.47931 14.7222 6.50742C14.598 6.53553 14.4809 6.58864 14.378 6.6635C14.2751 6.73836 14.1885 6.8334 14.1235 6.94284C14.0585 7.05227 14.0165 7.17379 14 7.3C13.8011 8.58518 13.1986 9.7738 12.2797 10.694C11.3607 11.6142 10.1729 12.2183 8.888 12.419L7 15.062V16.5H9V14.4C10.7383 14.1842 12.3567 13.4008 13.6043 12.1713C14.8519 10.9418 15.6588 9.33492 15.9 7.6C15.9322 7.34919 15.8672 7.09558 15.7185 6.89108C15.5698 6.68659 15.3485 6.54668 15.1 6.5Z" fill="currentColor"/>
<path d="M6.51985 12.293C5.38014 12.0092 4.35089 11.3922 3.56359 10.5206C2.77628 9.64905 2.26667 8.56258 2.09985 7.39998C2.08377 7.26053 2.03945 7.12582 1.96957 7.00407C1.8997 6.88232 1.80574 6.77609 1.69344 6.69186C1.58114 6.60763 1.45285 6.54718 1.3164 6.51419C1.17996 6.4812 1.03822 6.47637 0.899847 6.49998C0.651335 6.54667 0.430067 6.68658 0.281343 6.89107C0.132618 7.09557 0.0676889 7.34918 0.0998471 7.59998C0.311156 9.03515 0.909913 10.3855 1.83166 11.5057C2.7534 12.6258 3.96321 13.4733 5.33085 13.957L6.51985 12.293Z" fill="currentColor"/>
<path d="M7.814 10.481L12 4.621V4.5C12 3.43913 11.5786 2.42172 10.8284 1.67157C10.0783 0.921427 9.06087 0.5 8 0.5C6.93913 0.5 5.92172 0.921427 5.17157 1.67157C4.42143 2.42172 4 3.43913 4 4.5V6.5C4.00376 7.52613 4.40173 8.51156 5.11161 9.25252C5.82149 9.99348 6.78898 10.4333 7.814 10.481Z" fill="currentColor"/>
<path d="M3.00007 16.5C2.81644 16.4998 2.63639 16.4491 2.47968 16.3534C2.32297 16.2576 2.19565 16.1206 2.11167 15.9573C2.02769 15.794 1.9903 15.6107 2.0036 15.4276C2.0169 15.2444 2.08038 15.0685 2.18707 14.919L12.1871 0.918991C12.3412 0.703105 12.5747 0.557273 12.8363 0.513577C13.0979 0.469881 13.3662 0.5319 13.5821 0.685991C13.798 0.840082 13.9438 1.07362 13.9875 1.33524C14.0312 1.59685 13.9692 1.8651 13.8151 2.08099L3.81507 16.081C3.72246 16.2107 3.60017 16.3165 3.45839 16.3893C3.31662 16.4622 3.15948 16.5002 3.00007 16.5Z" fill="currentColor"/>
</g>
<defs>
</defs>
</svg>
