<svg width="9" height="12" viewBox="0 0 9 12" fill="none" xmlns="http://www.w3.org/2000/svg">
<path d="M0.783 0.0880035C0.707928 0.0364627 0.620207 0.00640194 0.529301 0.00106545C0.438396 -0.00427103 0.34776 0.0153194 0.267173 0.0577225C0.186587 0.100126 0.11911 0.163731 0.0720258 0.241675C0.0249413 0.319619 3.68967e-05 0.408942 0 0.500004V11.5C0.000167265 11.5911 0.02522 11.6804 0.0724523 11.7583C0.119685 11.8362 0.187301 11.8997 0.268 11.942C0.339356 11.9802 0.419063 12.0001 0.5 12C0.601059 11.9999 0.699728 11.9693 0.783 11.912L8.783 6.412C8.84983 6.36605 8.90447 6.30454 8.94222 6.23276C8.97998 6.16098 8.99971 6.0811 8.99971 6C8.99971 5.9189 8.97998 5.83902 8.94222 5.76725C8.90447 5.69547 8.84983 5.63395 8.783 5.588L0.783 0.0880035Z" fill="white"/>
</svg>
