<svg width="16" height="16" viewBox="0 0 16 16" fill="none" xmlns="http://www.w3.org/2000/svg">
<path d="M12.8571 4.968L12.7195 5.23065L12.884 5.47735C13.002 5.65435 13.0711 5.87317 13.1527 6.13144C13.1756 6.20391 13.1994 6.27949 13.2257 6.35811L13.3034 6.59145L13.5357 6.67225L15.5 7.35547V8.64453L13.5357 9.32775L13.2805 9.41654L13.2149 9.67873C13.1091 10.1022 13.0264 10.409 12.884 10.6227L12.7195 10.8694L12.8571 11.132L13.7865 12.9064L12.9064 13.7865L11.132 12.8571L10.9634 12.7688L10.7787 12.8149C10.5396 12.8747 10.3333 12.9631 10.1644 13.0355L10.153 13.0404C9.97401 13.1172 9.83419 13.1761 9.67873 13.2149L9.41654 13.2805L9.32775 13.5357L8.64453 15.5H7.35547L6.67225 13.5357L6.58346 13.2805L6.32127 13.2149C5.89778 13.1091 5.59098 13.0264 5.37735 12.884L5.13065 12.7195L4.868 12.8571L3.09362 13.7865L2.21348 12.9064L3.14292 11.132L3.23124 10.9634L3.18507 10.7787C3.12529 10.5396 3.03685 10.3333 2.96445 10.1644L2.95957 10.153C2.88285 9.97401 2.82394 9.83419 2.78507 9.67873L2.71952 9.41654L2.46426 9.32775L0.5 8.64453V7.35547L2.46426 6.67225L2.69656 6.59145L2.77434 6.35811C2.80055 6.27949 2.82442 6.20392 2.84731 6.13145C2.9289 5.87318 2.99802 5.65435 3.11603 5.47735L3.28049 5.23065L3.14292 4.968L2.21348 3.19362L3.19362 2.21348L4.968 3.14292L5.23065 3.28049L5.47735 3.11603C5.65435 2.99802 5.87318 2.9289 6.13145 2.84731C6.20392 2.82442 6.27949 2.80055 6.35811 2.77434L6.59145 2.69656L6.67225 2.46426L7.35547 0.5H8.63962L9.32566 2.55811L9.41245 2.8185L9.67873 2.88507C10.1022 2.99094 10.409 3.0736 10.6226 3.21603L10.8694 3.38049L11.132 3.24292L12.9064 2.31348L13.7865 3.19362L12.8571 4.968ZM4.5 8C4.5 9.97614 6.02386 11.5 8 11.5C9.97614 11.5 11.5 9.97614 11.5 8C11.5 6.02386 9.97614 4.5 8 4.5C6.02386 4.5 4.5 6.02386 4.5 8Z" fill="currentColor" stroke="currentColor"/>
</svg>
