<svg width="24" height="24" viewBox="0 0 24 24" fill="none" xmlns="http://www.w3.org/2000/svg">
<path d="M6.5 1H17.5C20 1 22 3 22 5.5C22 8 20 10 17.5 10H6.5" stroke="currentColor" stroke-width="2" stroke-miterlimit="10" stroke-linecap="round" stroke-linejoin="round"/>
<path d="M6.5 10C8.98528 10 11 7.98528 11 5.5C11 3.01472 8.98528 1 6.5 1C4.01472 1 2 3.01472 2 5.5C2 7.98528 4.01472 10 6.5 10Z" stroke="currentColor" stroke-width="2" stroke-miterlimit="10" stroke-linecap="round" stroke-linejoin="round"/>
<path d="M17.5 23H6.5C4 23 2 21 2 18.5C2 16 4 14 6.5 14H17.5" stroke="currentColor" stroke-width="2" stroke-miterlimit="10" stroke-linecap="round" stroke-linejoin="round"/>
<path d="M17.5 23C19.9853 23 22 20.9853 22 18.5C22 16.0147 19.9853 14 17.5 14C15.0147 14 13 16.0147 13 18.5C13 20.9853 15.0147 23 17.5 23Z" stroke="currentColor" stroke-width="2" stroke-miterlimit="10" stroke-linecap="round" stroke-linejoin="round"/>
</svg>
