<svg xmlns="http://www.w3.org/2000/svg" width="48" height="48" viewBox="0 0 48 48"><title>add-27</title><g stroke-linecap="square" stroke-linejoin="miter" stroke-width="2" fill="none" stroke="currentColor" stroke-miterlimit="10"><line x1="8" y1="14" x2="8" y2="26" stroke="currentColor"></line> <line x1="2" y1="20" x2="14" y2="20" stroke="currentColor"></line> <path d="M30,22L30,22 c-4.418,0-8-3.582-8-8v-4c0-4.418,3.582-8,8-8h0c4.418,0,8,3.582,8,8v4C38,18.418,34.418,22,30,22z"></path> <path d="M46,46H14v-8.229 c0-2.493,1.53-4.727,3.862-5.61C20.635,31.11,24.797,30,30,30s9.365,1.11,12.138,2.161C44.47,33.044,46,35.278,46,37.771V46z"></path></g></svg>