<svg width="33" height="33" viewBox="0 0 33 33" fill="none" xmlns="http://www.w3.org/2000/svg">
<g clip-path="url(#clip0)">
<path d="M16.75 32.5C12.5188 32.6114 8.30606 31.9031 4.344 30.414C4.16718 30.3354 4.01695 30.2073 3.91151 30.0451C3.80608 29.8828 3.74998 29.6935 3.75 29.5C3.75291 26.8487 4.80742 24.3069 6.68215 22.4321C8.55688 20.5574 11.0987 19.5029 13.75 19.5H19.75C22.4013 19.5029 24.9431 20.5574 26.8179 22.4321C28.6926 24.3069 29.7471 26.8487 29.75 29.5C29.75 29.6935 29.6939 29.8828 29.5885 30.0451C29.4831 30.2073 29.3328 30.3354 29.156 30.414C25.1939 31.9031 20.9812 32.6114 16.75 32.5Z" fill="currentColor"/>
<path d="M16.75 17.5C12.171 17.5 8.75 12.749 8.75 8.5C8.75 6.37827 9.59285 4.34344 11.0931 2.84315C12.5934 1.34285 14.6283 0.5 16.75 0.5C18.8717 0.5 20.9066 1.34285 22.4069 2.84315C23.9071 4.34344 24.75 6.37827 24.75 8.5C24.75 12.749 21.329 17.5 16.75 17.5Z" fill="currentColor"/>
</g>
<defs>
<clipPath id="clip0">
<rect width="32" height="32" fill="white" transform="translate(0.75 0.5)"/>
</clipPath>
</defs>
</svg>
