<svg width="16" height="16" viewBox="0 0 16 16" fill="none" xmlns="http://www.w3.org/2000/svg">
<path d="M7.64645 6.95355L8 7.30711L8.35355 6.95355L13.6536 1.65355C13.8583 1.44882 14.1417 1.44882 14.3464 1.65355C14.5512 1.85829 14.5512 2.14171 14.3464 2.34645L9.04645 7.64645L8.69289 8L9.04645 8.35355L14.3464 13.6536C14.5512 13.8583 14.5512 14.1417 14.3464 14.3464C14.3033 14.3896 14.2394 14.4307 14.1643 14.4608C14.087 14.4917 14.0252 14.5 14 14.5C13.9748 14.5 13.913 14.4917 13.8357 14.4608C13.7606 14.4307 13.6967 14.3896 13.6536 14.3464L8.35355 9.04645L8 8.69289L7.64645 9.04645L2.34645 14.3464C2.27596 14.4169 2.22535 14.4499 2.18443 14.4681C2.14568 14.4853 2.09166 14.5 2 14.5C1.90834 14.5 1.85432 14.4853 1.81557 14.4681C1.77465 14.4499 1.72404 14.4169 1.65355 14.3464C1.44882 14.1417 1.44882 13.8583 1.65355 13.6536L6.95355 8.35355L7.30711 8L6.95355 7.64645L1.65355 2.34645C1.44882 2.14171 1.44882 1.85829 1.65355 1.65355C1.85829 1.44882 2.14171 1.44882 2.34645 1.65355L7.64645 6.95355Z" fill="currentColor" stroke="currentColor"/>
</svg>
