<svg width="24" height="24" viewBox="0 0 24 24" fill="none" xmlns="http://www.w3.org/2000/svg">
<path d="M0.596078 12.0341C0.877382 11.7272 1.25891 11.5548 1.65674 11.5548C2.05456 11.5548 2.43609 11.7272 2.7174 12.0341L6.60648 16.2767L7.31359 15.5054L2.01029 9.71993C1.72899 9.41305 1.57095 8.99684 1.57095 8.56285C1.57095 8.12886 1.72899 7.71264 2.01029 7.40577C2.2916 7.09889 2.67313 6.92648 3.07095 6.92648C3.46878 6.92648 3.85031 7.09889 4.13161 7.40576L9.43491 13.1912L10.142 12.4198L4.13161 5.86299C3.85031 5.55611 3.69227 5.13989 3.69227 4.7059C3.69227 4.27191 3.85031 3.8557 4.13161 3.54882C4.41292 3.24194 4.79445 3.06954 5.19227 3.06954C5.5901 3.06954 5.97163 3.24194 6.25293 3.54882L12.2633 10.1056L12.9704 9.33424L7.66715 3.54882C7.38584 3.24194 7.22781 2.82573 7.22781 2.39173C7.22781 1.95774 7.38584 1.54153 7.66715 1.23465C7.94845 0.927773 8.32998 0.755371 8.72781 0.755371C9.12563 0.755371 9.50716 0.927773 9.78847 1.23465L16.7761 8.85752C16.8966 8.98889 17.046 9.08447 17.2099 9.13521C17.3738 9.18594 17.5469 9.19014 17.7127 9.14741C17.8785 9.10467 18.0316 9.01642 18.1574 8.89103C18.2832 8.76564 18.3775 8.60727 18.4314 8.43094L19.6512 4.43437C19.7809 4.0093 20.0473 3.64983 20.4011 3.42238C20.7549 3.19494 21.1722 3.1149 21.5759 3.19707C21.9612 3.29024 22.3072 3.52046 22.5595 3.85154C22.8118 4.18261 22.9561 4.59576 22.9696 5.02603L23.3373 11.876C23.4122 13.2598 23.2176 14.6453 22.7663 15.9412C22.315 17.2372 21.6172 18.4141 20.7189 19.3947L19.3344 20.9051C17.6466 22.7463 15.3574 23.7808 12.9704 23.7808C10.5835 23.7808 8.29431 22.7463 6.60648 20.9051L0.596078 14.3483C0.314773 14.0414 0.156738 13.6252 0.156738 13.1912C0.156738 12.7572 0.314773 12.341 0.596078 12.0341Z" fill="currentColor"/>
</svg>
