<svg width="24" height="24" viewBox="0 0 24 24" fill="none" xmlns="http://www.w3.org/2000/svg">
<path d="M7.00024 10V6C6.9937 5.34157 7.11855 4.68845 7.36751 4.07886C7.61646 3.46928 7.98451 2.91547 8.45011 2.44987C8.91572 1.98427 9.46952 1.61622 10.0791 1.36726C10.6887 1.11831 11.3418 0.993451 12.0002 1V1C12.6587 0.993451 13.3118 1.11831 13.9214 1.36726C14.531 1.61622 15.0848 1.98427 15.5504 2.44987C16.016 2.91547 16.384 3.46928 16.633 4.07886C16.8819 4.68845 17.0068 5.34157 17.0002 6" stroke="currentColor" stroke-width="2" stroke-linecap="round" stroke-linejoin="round"/>
<path d="M7 23H17" stroke="currentColor" stroke-width="2" stroke-linecap="round" stroke-linejoin="round"/>
<path d="M12 19V23" stroke="currentColor" stroke-width="2" stroke-linecap="round" stroke-linejoin="round"/>
<path d="M17.0001 7V6C17.0001 4.67392 16.4733 3.40215 15.5356 2.46447C14.598 1.52678 13.3262 1 12.0001 1C10.674 1 9.40225 1.52678 8.46457 2.46447C7.52689 3.40215 7.0001 4.67392 7.0001 6V10C6.99432 10.9 7.23494 11.7843 7.6959 12.5573C8.15686 13.3303 8.82056 13.9623 9.6151 14.385" stroke="currentColor" stroke-width="2" stroke-linecap="round" stroke-linejoin="round"/>
<path d="M13.4839 14.758C14.258 14.526 14.9624 14.1054 15.5338 13.5339C16.1052 12.9625 16.5258 12.2581 16.7579 11.484" stroke="currentColor" stroke-width="2" stroke-linecap="round" stroke-linejoin="round"/>
<path d="M3.00005 10C2.99536 11.4223 3.32952 12.8254 3.97485 14.0929C4.62018 15.3604 5.55813 16.456 6.71105 17.289" stroke="currentColor" stroke-width="2" stroke-linecap="round" stroke-linejoin="round"/>
<path d="M9.57715 18.665C10.366 18.8855 11.1811 18.9982 12.0001 19C13.1834 19.0049 14.3559 18.7754 15.4501 18.3249C16.5442 17.8743 17.5383 17.2116 18.375 16.3749C19.2117 15.5382 19.8745 14.5441 20.325 13.4499C20.7756 12.3558 21.005 11.1833 21.0001 10" stroke="currentColor" stroke-width="2" stroke-linecap="round" stroke-linejoin="round"/>
<path d="M3 21L21 3" stroke="currentColor" stroke-width="2" stroke-linecap="round" stroke-linejoin="round"/>
</svg>
