<svg width="600" height="201" viewBox="0 0 600 201" fill="none" xmlns="http://www.w3.org/2000/svg">
<path d="M0 35.0417H24.6036C40.375 35.0417 53.1603 47.8269 53.1603 63.5983V88.202H28.5567C12.7853 88.202 0 75.4167 0 59.6453V35.0417Z" fill="#FF00FF"/>
<path d="M0 127.577C0 111.806 12.7853 99.0205 28.5567 99.0205H53.1603V123.624C53.1603 139.396 40.3751 152.181 24.6036 152.181H0V127.577Z" fill="#FFE602"/>
<path d="M63.9789 99.0205H88.5825C104.354 99.0205 117.139 111.806 117.139 127.577V152.181H92.5356C76.7642 152.181 63.9789 139.396 63.9789 123.624V99.0205Z" fill="#00FFFF"/>
<path d="M63.9789 63.5983C63.9789 47.8269 76.7641 35.0417 92.5356 35.0417H117.139V59.6453C117.139 75.4167 104.354 88.202 88.5825 88.202H63.9789V63.5983Z" fill="#75FF00"/>
<path d="M151.18 102.964C151.18 135.991 172.594 155.661 198.875 155.661C215.18 155.661 224.427 150.804 234.404 139.633H234.891V145.947C234.891 166.589 220.29 176.788 203.499 176.788C192.548 176.788 184.518 172.174 176.488 164.403L155.073 177.517C166.51 190.63 178.434 200.587 204.959 200.587C226.86 200.587 258.738 184.802 258.738 148.861V34.9691H233.43V101.507C233.43 119.721 223.94 131.863 204.229 131.863C188.655 131.863 176.488 123.606 176.488 103.936V34.9691H151.18V102.964Z" fill="#423737"/>
<path d="M372.677 152.504H397.985V34.9691H372.677V49.2967H372.191C365.62 39.3402 352.236 31.8121 334.715 31.8121C296.51 31.8121 272.419 64.8385 272.419 93.7365C272.419 124.092 294.807 155.661 333.499 155.661C349.559 155.661 364.16 148.861 372.191 138.176H372.677V152.504ZM299.187 93.7365C299.187 72.6094 316.221 55.6105 336.662 55.6105C356.616 55.6105 373.651 72.6094 373.651 93.7365C373.651 114.864 356.616 131.863 336.662 131.863C316.221 131.863 299.187 114.864 299.187 93.7365Z" fill="#423737"/>
<path d="M420.447 152.504H445.755V74.795C445.755 64.11 454.029 57.0676 463.276 57.0676C465.709 57.0676 470.333 58.5246 472.766 60.4674L481.77 35.4548C478.363 33.2692 473.496 31.8121 467.9 31.8121C457.679 31.8121 448.919 38.126 444.782 47.8396H444.295V34.9691H420.447V152.504Z" fill="#423737"/>
<path d="M574.692 152.504H600V0H574.692V49.2967H574.205C567.635 39.3402 554.251 31.8121 536.73 31.8121C498.525 31.8121 474.434 64.8385 474.434 93.7365C474.434 124.092 496.822 155.661 535.513 155.661C551.574 155.661 566.175 148.861 574.205 138.176H574.692V152.504ZM501.202 93.7365C501.202 72.6094 518.236 55.6105 538.677 55.6105C558.631 55.6105 575.665 72.6094 575.665 93.7365C575.665 114.864 558.631 131.863 538.677 131.863C518.236 131.863 501.202 114.864 501.202 93.7365Z" fill="#423737"/>
</svg>
